<svg width="21" height="26" viewBox="0 0 21 26" fill="none" xmlns="http://www.w3.org/2000/svg">
<path fill-rule="evenodd" clip-rule="evenodd" d="M5.2248 2.14795C6.38902 2.14894 7.50526 2.61507 8.32849 3.444C9.15171 4.27293 9.61463 5.39692 9.61562 6.5692V20.2455C9.61562 21.4181 9.15302 22.5426 8.32958 23.3718C7.50614 24.2009 6.38932 24.6667 5.2248 24.6667C4.06028 24.6667 2.94346 24.2009 2.12002 23.3718C1.29659 22.5426 0.833984 21.4181 0.833984 20.2455V6.5692C0.834971 5.39692 1.29789 4.27293 2.12111 3.444C2.94434 2.61507 4.06059 2.14894 5.2248 2.14795Z" fill="#FB9678" stroke="#FB9678" stroke-width="1.11111"/>
<path d="M15.1138 1.33325H5.43094C2.96277 1.33325 0.961914 3.34797 0.961914 5.83326C0.961914 8.31854 2.96277 10.3333 5.43094 10.3333H15.1138C17.582 10.3333 19.5829 8.31854 19.5829 5.83326C19.5829 3.34797 17.582 1.33325 15.1138 1.33325Z" fill="#03C9D7" stroke="#03C9D7" stroke-width="1.11111"/>
<path d="M14.893 21.806C17.4961 21.806 19.6064 19.6811 19.6064 17.06C19.6064 14.4388 17.4961 12.314 14.893 12.314C12.2899 12.314 10.1797 14.4388 10.1797 17.06C10.1797 19.6811 12.2899 21.806 14.893 21.806Z" fill="#FEC90F" stroke="#FEC90F" stroke-width="1.11111"/>
</svg>
