<svg width="26" height="20" viewBox="0 0 26 20" fill="none" xmlns="http://www.w3.org/2000/svg">
<mask id="mask0_53_1093" style="mask-type:luminance" maskUnits="userSpaceOnUse" x="0" y="0" width="26" height="20">
<path d="M25.5 0.833252H0.5V19.9999H25.5V0.833252Z" fill="white"/>
</mask>
<g mask="url(#mask0_53_1093)">
<path d="M0.500176 3.10421C0.500176 5.06254 1.16684 6.02088 3.83351 7.77088C6.79184 9.72925 7.16684 10.3543 7.16684 13.2709C7.16684 17.3543 8.41684 19.7709 10.5418 19.7709C12.0002 19.7709 12.1668 19.1876 12.1668 13.3126L12.1252 6.85421L6.79184 3.72921C0.375176 -0.0207891 0.500176 -0.0207891 0.500176 3.10421Z" fill="white"/>
<path d="M19.0423 3.77085L13.8757 6.85418L13.834 13.3125C13.834 19.1875 14.0007 19.7709 15.459 19.7709C17.584 19.7709 18.834 17.3542 18.834 13.2709C18.834 10.3542 19.209 9.72921 22.1673 7.77085C24.834 6.02085 25.5007 5.06251 25.5007 3.10418C25.5007 -0.0208182 25.3757 0.0208486 19.0423 3.77085Z" fill="white"/>
</g>
</svg>
