<svg width="130" height="32" viewBox="0 0 130 32" fill="none" xmlns="http://www.w3.org/2000/svg">
  <path d="M30.3996 6.07397V11.2023C30.3996 11.8116 30.0776 12.3756 29.5528 12.6853L23.9422 15.9964V10.9693C23.9422 9.68871 22.5941 8.85617 21.4491 9.42964L16.7018 11.8073C16.2005 12.0584 15.6083 12.0497 15.1145 11.7839L10.9203 9.52643C9.78211 8.91378 8.39982 9.72698 8.3824 11.0195L8.3153 15.9964L2.47551 12.702C1.93434 12.3967 1.59961 11.823 1.59961 11.2017L1.59961 6.40231C1.59961 5.77688 1.93872 5.20011 2.48548 4.89643L7.6604 2.02219C8.13848 1.75665 8.71428 1.734 9.21175 1.96115L15.1959 4.69364C15.645 4.89866 16.1603 4.90115 16.6113 4.70046L22.8357 1.93049C23.3061 1.72119 23.8453 1.73329 24.3058 1.96346L29.4476 4.53371C30.031 4.82537 30.3996 5.42167 30.3996 6.07397Z" fill="#46BCFA" />
  <path d="M30.3996 25.9259V20.7975C30.3996 20.1882 30.0776 19.6242 29.5528 19.3145L23.9422 16.0035V21.0305C23.9422 22.3111 22.5941 23.1437 21.4491 22.5702L16.7018 20.1925C16.2005 19.9415 15.6083 19.9502 15.1145 20.2159L10.9203 22.4734C9.78211 23.0861 8.39982 22.2729 8.3824 20.9803L8.3153 16.0035L2.47551 19.2979C1.93434 19.6032 1.59961 20.1768 1.59961 20.7982L1.59961 25.5975C1.59961 26.223 1.93872 26.7997 2.48548 27.1034L7.6604 29.9777C8.13848 30.2432 8.71428 30.2659 9.21175 30.0387L15.1959 27.3062C15.645 27.1012 16.1603 27.0987 16.6113 27.2994L22.8357 30.0694C23.3061 30.2787 23.8453 30.2666 24.3058 30.0364L29.4476 27.4661C30.031 27.1745 30.3996 26.5782 30.3996 25.9259Z" fill="#5E88FE" />
  <path d="M46.3636 23H41.4347V8.45455H46.4631C47.9072 8.45455 49.1477 8.74574 50.1847 9.32812C51.2263 9.90578 52.0265 10.7367 52.5852 11.821C53.1439 12.9053 53.4233 14.2027 53.4233 15.7131C53.4233 17.2282 53.1416 18.5303 52.5781 19.6193C52.0194 20.7083 51.2121 21.544 50.1562 22.1264C49.1051 22.7088 47.8409 23 46.3636 23ZM44.0696 20.7202H46.2358C47.2491 20.7202 48.0942 20.5355 48.7713 20.1662C49.4484 19.7921 49.9574 19.2358 50.2983 18.4972C50.6392 17.7538 50.8097 16.8258 50.8097 15.7131C50.8097 14.6004 50.6392 13.6771 50.2983 12.9432C49.9574 12.2045 49.4531 11.6529 48.7855 11.2884C48.1226 10.919 47.2988 10.7344 46.3139 10.7344H44.0696V20.7202ZM58.5524 23.2202C57.8611 23.2202 57.2385 23.0971 56.6845 22.8509C56.1353 22.5999 55.6997 22.2306 55.3777 21.7429C55.0605 21.2552 54.9018 20.6539 54.9018 19.9389C54.9018 19.3234 55.0155 18.8144 55.2428 18.4119C55.47 18.0095 55.7802 17.6875 56.1732 17.446C56.5661 17.2045 57.0089 17.0223 57.5013 16.8991C57.9984 16.7713 58.5122 16.679 59.0425 16.6222C59.6817 16.5559 60.2001 16.4967 60.5979 16.4446C60.9956 16.3878 61.2844 16.3026 61.4643 16.1889C61.649 16.0705 61.7413 15.8883 61.7413 15.642V15.5994C61.7413 15.0644 61.5827 14.6501 61.2655 14.3565C60.9482 14.063 60.4913 13.9162 59.8947 13.9162C59.265 13.9162 58.7655 14.0535 58.3962 14.3281C58.0316 14.6027 57.7854 14.9271 57.6575 15.3011L55.257 14.9602C55.4464 14.2973 55.7589 13.7434 56.1945 13.2983C56.6301 12.8485 57.1627 12.5123 57.7925 12.2898C58.4222 12.0625 59.1182 11.9489 59.8805 11.9489C60.4061 11.9489 60.9293 12.0104 61.4501 12.1335C61.971 12.2566 62.4468 12.4602 62.8777 12.7443C63.3086 13.0237 63.6542 13.4048 63.9146 13.8878C64.1798 14.3707 64.3124 14.9744 64.3124 15.6989V23H61.8408V21.5014H61.7555C61.5993 21.8045 61.3791 22.0885 61.095 22.3537C60.8157 22.6141 60.4629 22.8248 60.0368 22.9858C59.6154 23.142 59.1206 23.2202 58.5524 23.2202ZM59.22 21.331C59.7361 21.331 60.1836 21.2292 60.5624 21.0256C60.9411 20.8172 61.2323 20.5426 61.4359 20.2017C61.6443 19.8608 61.7484 19.4891 61.7484 19.0866V17.8011C61.6679 17.8674 61.5306 17.929 61.3365 17.9858C61.1471 18.0426 60.934 18.0923 60.6973 18.1349C60.4606 18.1776 60.2262 18.2154 59.9942 18.2486C59.7622 18.2817 59.5609 18.3101 59.3905 18.3338C59.007 18.3859 58.6637 18.4711 58.3607 18.5895C58.0576 18.7079 57.8185 18.8736 57.6433 19.0866C57.4681 19.295 57.3805 19.5649 57.3805 19.8963C57.3805 20.3698 57.5534 20.7273 57.899 20.9688C58.2447 21.2102 58.685 21.331 59.22 21.331ZM75.1197 14.9744L72.776 15.2301C72.7097 14.9934 72.5937 14.7708 72.428 14.5625C72.267 14.3542 72.0492 14.1861 71.7746 14.0582C71.5 13.9304 71.1638 13.8665 70.7661 13.8665C70.231 13.8665 69.7812 13.9825 69.4166 14.2145C69.0568 14.4465 68.8792 14.7472 68.8839 15.1165C68.8792 15.4337 68.9952 15.6918 69.232 15.8906C69.4734 16.0895 69.8712 16.2528 70.4251 16.3807L72.2859 16.7784C73.3181 17.0009 74.0852 17.3537 74.5871 17.8366C75.0937 18.3196 75.3494 18.9517 75.3541 19.733C75.3494 20.4195 75.1482 21.0256 74.7504 21.5511C74.3574 22.072 73.8106 22.4792 73.1098 22.7727C72.409 23.0663 71.6041 23.2131 70.695 23.2131C69.3598 23.2131 68.285 22.9337 67.4706 22.375C66.6562 21.8116 66.1709 21.0279 66.0146 20.0241L68.5217 19.7827C68.6354 20.2751 68.8768 20.6468 69.2462 20.8977C69.6155 21.1487 70.0961 21.2741 70.6879 21.2741C71.2987 21.2741 71.7888 21.1487 72.1581 20.8977C72.5322 20.6468 72.7192 20.3366 72.7192 19.9673C72.7192 19.6548 72.5984 19.3968 72.357 19.1932C72.1202 18.9896 71.7509 18.8333 71.249 18.7244L69.3882 18.3338C68.3418 18.116 67.5677 17.7491 67.0658 17.233C66.5639 16.7121 66.3153 16.054 66.32 15.2585C66.3153 14.5862 66.4976 14.0038 66.8669 13.5114C67.241 13.0142 67.7594 12.6307 68.4223 12.3608C69.0899 12.0862 69.8593 11.9489 70.7305 11.9489C72.0089 11.9489 73.0151 12.2211 73.749 12.7656C74.4876 13.3101 74.9446 14.0464 75.1197 14.9744ZM79.6452 16.608V23H77.0741V8.45455H79.5884V13.9446H79.7162C79.9719 13.3291 80.3672 12.8437 80.9023 12.4886C81.442 12.1288 82.1286 11.9489 82.9619 11.9489C83.7195 11.9489 84.38 12.1075 84.9435 12.4247C85.5069 12.742 85.9425 13.206 86.2503 13.8168C86.5628 14.4276 86.719 15.1733 86.719 16.054V23H84.148V16.4517C84.148 15.7178 83.9586 15.1473 83.5798 14.7401C83.2058 14.3281 82.6802 14.1222 82.0031 14.1222C81.5486 14.1222 81.1414 14.2216 80.7815 14.4205C80.4264 14.6146 80.1471 14.8963 79.9435 15.2656C79.7446 15.6349 79.6452 16.0824 79.6452 16.608ZM91.5108 16.608V23H88.9398V12.0909H91.3972V13.9446H91.525C91.7759 13.3338 92.176 12.8485 92.7253 12.4886C93.2793 12.1288 93.9634 11.9489 94.7778 11.9489C95.5307 11.9489 96.1865 12.1098 96.7452 12.4318C97.3086 12.7538 97.7442 13.2202 98.052 13.831C98.3645 14.4418 98.5184 15.1828 98.5136 16.054V23H95.9426V16.4517C95.9426 15.7225 95.7532 15.152 95.3744 14.7401C95.0004 14.3281 94.4819 14.1222 93.819 14.1222C93.3692 14.1222 92.9691 14.2216 92.6188 14.4205C92.2731 14.6146 92.0009 14.8963 91.802 15.2656C91.6079 15.6349 91.5108 16.0824 91.5108 16.608ZM105.557 23.2131C104.463 23.2131 103.518 22.9858 102.723 22.5312C101.932 22.072 101.324 21.4233 100.898 20.5852C100.472 19.7424 100.259 18.7505 100.259 17.6094C100.259 16.4872 100.472 15.5024 100.898 14.6548C101.329 13.8026 101.93 13.1397 102.702 12.6662C103.473 12.188 104.38 11.9489 105.422 11.9489C106.094 11.9489 106.729 12.0578 107.325 12.2756C107.927 12.4886 108.457 12.8201 108.916 13.2699C109.38 13.7197 109.745 14.2926 110.01 14.9886C110.275 15.6799 110.408 16.5038 110.408 17.4602V18.2486H101.466V16.5156H107.943C107.938 16.0232 107.832 15.5852 107.624 15.2017C107.415 14.8134 107.124 14.508 106.75 14.2855C106.381 14.063 105.95 13.9517 105.457 13.9517C104.932 13.9517 104.47 14.0795 104.072 14.3352C103.675 14.5862 103.365 14.9176 103.142 15.3295C102.924 15.7367 102.813 16.1842 102.808 16.6719V18.1847C102.808 18.8191 102.924 19.3636 103.156 19.8182C103.388 20.268 103.713 20.6136 104.129 20.8551C104.546 21.0919 105.034 21.2102 105.592 21.2102C105.966 21.2102 106.305 21.1581 106.608 21.054C106.911 20.9451 107.174 20.7865 107.396 20.5781C107.619 20.3698 107.787 20.1117 107.901 19.804L110.301 20.0739C110.15 20.7083 109.861 21.2623 109.435 21.7358C109.013 22.2045 108.473 22.5691 107.815 22.8295C107.157 23.0852 106.404 23.2131 105.557 23.2131ZM114.051 12.0909L116.252 16.1179L118.49 12.0909H121.21L117.921 17.5455L121.267 23H118.561L116.252 19.0724L113.965 23H111.238L114.562 17.5455L111.323 12.0909H114.051ZM128.246 12.0909V14.0795H121.974V12.0909H128.246ZM123.523 9.47727H126.094V19.7188C126.094 20.0644 126.146 20.3295 126.25 20.5142C126.359 20.6941 126.501 20.8172 126.676 20.8835C126.851 20.9498 127.046 20.983 127.259 20.983C127.42 20.983 127.566 20.9711 127.699 20.9474C127.836 20.9238 127.94 20.9025 128.011 20.8835L128.445 22.8935C128.307 22.9408 128.111 22.9929 127.855 23.0497C127.604 23.1065 127.296 23.1397 126.932 23.1491C126.288 23.1681 125.708 23.071 125.192 22.858C124.676 22.6402 124.266 22.304 123.963 21.8494C123.665 21.3949 123.518 20.8267 123.523 20.1449V9.47727Z" fill="#FFFFFF" />
</svg>