<svg width="32" height="32" viewBox="0 0 32 32" fill="none" xmlns="http://www.w3.org/2000/svg">
<path d="M30.3996 6.07409V11.2024C30.3996 11.8118 30.0776 12.3757 29.5528 12.6854L23.9422 15.9965V10.9694C23.9422 9.68883 22.5941 8.85629 21.4491 9.42976L16.7018 11.8074C16.2005 12.0585 15.6083 12.0498 15.1145 11.7841L10.9203 9.52655C9.78211 8.9139 8.39982 9.72711 8.3824 11.0196L8.3153 15.9965L2.47551 12.7021C1.93434 12.3968 1.59961 11.8232 1.59961 11.2018L1.59961 6.40243C1.59961 5.777 1.93872 5.20023 2.48548 4.89656L7.6604 2.02231C8.13848 1.75677 8.71428 1.73412 9.21175 1.96127L15.1959 4.69376C15.645 4.89879 16.1603 4.90127 16.6113 4.70059L22.8357 1.93061C23.3061 1.72131 23.8453 1.73341 24.3058 1.96358L29.4476 4.53383C30.031 4.82549 30.3996 5.42179 30.3996 6.07409Z" fill="#46BCFA"/>
<path d="M30.3996 25.926V20.7977C30.3996 20.1883 30.0776 19.6244 29.5528 19.3147L23.9422 16.0036V21.0307C23.9422 22.3113 22.5941 23.1438 21.4491 22.5703L16.7018 20.1927C16.2005 19.9416 15.6083 19.9503 15.1145 20.216L10.9203 22.4735C9.78211 23.0862 8.39982 22.273 8.3824 20.9805L8.3153 16.0036L2.47551 19.298C1.93434 19.6033 1.59961 20.1769 1.59961 20.7983L1.59961 25.5977C1.59961 26.2231 1.93872 26.7999 2.48548 27.1035L7.6604 29.9778C8.13848 30.2433 8.71428 30.266 9.21175 30.0388L15.1959 27.3063C15.645 27.1013 16.1603 27.0988 16.6113 27.2995L22.8357 30.0695C23.3061 30.2788 23.8453 30.2667 24.3058 30.0365L29.4476 27.4663C30.031 27.1746 30.3996 26.5783 30.3996 25.926Z" fill="#5E88FE"/>
</svg>
