<svg width="32" height="32" viewBox="0 0 32 32" fill="none" xmlns="http://www.w3.org/2000/svg">
<g clip-path="url(#clip0_660_284)">
<path d="M28.051 -0.0116095C28.1907 -0.0117468 28.3304 -0.0128885 28.4701 -0.0140661C29.4897 -0.0181519 30.4095 0.108495 31.1707 0.846407C31.5405 1.24889 31.8079 1.65302 31.9368 2.18747C31.9475 2.22947 31.9582 2.27147 31.9692 2.31475C32.0115 2.57514 32.0107 2.83176 32.012 3.09519C32.0124 3.1533 32.0129 3.21141 32.0133 3.27129C32.0144 3.4595 32.0148 3.6477 32.0149 3.83591C32.015 3.8999 32.015 3.96389 32.015 4.02982C32.0141 4.95026 31.9889 5.84427 31.8118 6.74997C31.8011 6.80863 31.7903 6.8673 31.7793 6.92774C31.07 10.7859 29.2934 14.5245 26.6277 17.4226C26.5067 17.5544 26.3894 17.6886 26.2727 17.8242C26.1006 18.0221 25.919 18.2066 25.732 18.3904C25.6268 18.4974 25.5298 18.6082 25.4329 18.7226C24.9725 19.2559 24.4617 19.7589 23.9241 20.2138C23.754 20.3632 23.5975 20.5253 23.4402 20.688C23.3118 20.8125 23.3118 20.8125 23.119 20.9187C22.9685 21.045 22.9387 21.1145 22.9026 21.3107C22.8903 21.5574 22.8898 21.8027 22.8931 22.0495C22.8929 22.1415 22.8924 22.2334 22.8918 22.3254C22.8906 22.5673 22.8915 22.8092 22.893 23.0512C22.8951 23.4372 22.8948 23.8233 22.8932 24.2093C22.8931 24.3433 22.8942 24.4772 22.8954 24.6112C22.8975 25.2376 22.8405 25.7825 22.4563 26.2968C22.4174 26.3507 22.3785 26.4045 22.3384 26.4599C21.8703 26.9694 21.2451 27.2381 20.635 27.5403C20.5326 27.5914 20.4303 27.6425 20.3279 27.6937C20.1143 27.8004 19.9006 27.9068 19.6868 28.0128C19.4128 28.1488 19.1391 28.2854 18.8655 28.4222C18.6546 28.5277 18.4435 28.6329 18.2324 28.738C18.1314 28.7883 18.0304 28.8386 17.9295 28.8891C17.7887 28.9593 17.6478 29.0292 17.5068 29.099C17.4652 29.1199 17.4237 29.1407 17.3808 29.1621C17.0037 29.348 16.6697 29.4357 16.2493 29.375C15.8978 29.2317 15.6812 29.0221 15.4993 28.6875C15.4383 28.5044 15.4292 28.3881 15.4297 28.1976C15.4297 28.1363 15.4297 28.075 15.4297 28.0118C15.43 27.9458 15.4304 27.8798 15.4307 27.8117C15.4308 27.7102 15.4308 27.7102 15.431 27.6066C15.4313 27.39 15.4321 27.1735 15.4329 26.957C15.4332 26.8103 15.4335 26.6636 15.4337 26.5169C15.4344 26.1571 15.4355 25.7973 15.4368 25.4375C15.3992 25.4463 15.3617 25.4551 15.323 25.4642C15.2732 25.4756 15.2233 25.487 15.172 25.4988C15.1228 25.5102 15.0737 25.5216 15.023 25.5333C14.7984 25.5774 14.5792 25.5838 14.3509 25.582C14.3048 25.5817 14.2588 25.5814 14.2113 25.5811C13.8267 25.5729 13.4847 25.5143 13.1243 25.375C13.0741 25.3566 13.0239 25.3382 12.9722 25.3193C12.6459 25.1794 12.3942 24.9812 12.1377 24.7394C12.1028 24.7068 12.0678 24.6742 12.0318 24.6406C11.5628 24.1999 11.1077 23.7449 10.6521 23.2905C10.6045 23.243 10.5568 23.1955 10.5077 23.1466C10.2562 22.896 10.0048 22.6452 9.75362 22.3943C9.4958 22.1368 9.2374 21.8799 8.97886 21.6232C8.77833 21.4238 8.57822 21.224 8.37822 21.0241C8.28314 20.9292 8.18791 20.8345 8.09252 20.7399C7.1894 19.8441 6.45534 19.0244 6.42116 17.6914C6.42725 17.4494 6.45898 17.2186 6.50026 16.9802C6.51173 16.9134 6.52319 16.8467 6.53499 16.7779C6.54384 16.7274 6.55268 16.677 6.56179 16.625C6.52375 16.6249 6.48571 16.6248 6.44652 16.6247C6.04902 16.6235 5.65158 16.6201 5.25411 16.6154C5.10596 16.614 4.95781 16.6131 4.80965 16.6127C4.59613 16.6122 4.38271 16.6096 4.16921 16.6067C4.07055 16.607 4.07055 16.607 3.96989 16.6074C3.54854 16.5991 3.2614 16.5267 2.93679 16.25C2.7066 15.9844 2.60952 15.7261 2.62429 15.375C2.73176 14.7967 3.0319 14.2722 3.29323 13.7517C3.34099 13.6558 3.38871 13.56 3.43642 13.4641C3.53611 13.2641 3.63618 13.0642 3.7365 12.8645C3.86425 12.6101 3.99098 12.3552 4.11743 12.1001C4.21565 11.9023 4.31445 11.7047 4.41343 11.5073C4.46036 11.4135 4.50711 11.3196 4.55365 11.2256C5.00071 10.3239 5.43495 9.61237 6.40603 9.23508C6.71661 9.14015 7.01413 9.11775 7.33762 9.12206C7.41586 9.12283 7.4941 9.1236 7.57471 9.12439C7.61606 9.12489 7.65742 9.12538 7.70003 9.12589C7.96769 9.12855 8.23538 9.12778 8.50305 9.12778C8.7374 9.12796 8.97165 9.12926 9.20597 9.13289C9.4338 9.13636 9.66145 9.13674 9.88929 9.1351C9.97553 9.13502 10.0618 9.13604 10.148 9.13822C10.6635 9.15223 10.6635 9.15223 11.1104 8.9274C11.2525 8.77033 11.3762 8.60963 11.4993 8.43747C11.576 8.35167 11.6539 8.26679 11.7334 8.18357C11.771 8.14339 11.8085 8.10322 11.8472 8.06183C12.2566 7.62644 12.6711 7.19675 13.093 6.77341C13.1386 6.72757 13.1841 6.68173 13.2311 6.63449C13.4828 6.38354 13.7406 6.14388 14.0098 5.91187C14.1691 5.77353 14.3221 5.62878 14.4759 5.48435C18.0847 2.14986 23.1185 -0.012151 28.051 -0.0116095ZM19.8115 5.77976C19.0254 6.77364 18.7756 7.9472 18.8743 9.18747C18.993 10.093 19.3901 10.9457 19.9993 11.625C20.0417 11.6724 20.084 11.7199 20.1277 11.7688C20.9854 12.6768 22.141 13.125 23.3704 13.2031C24.6838 13.1783 25.7732 12.6785 26.7195 11.7893C27.552 10.9241 27.9668 9.79608 28.0188 8.60544C27.9809 7.31253 27.457 6.16222 26.5391 5.2602C25.5685 4.34588 24.3801 4.00454 23.0718 4.04099C21.7629 4.10827 20.6519 4.80612 19.8115 5.77976Z" fill="white"/>
<path d="M8.06179 23.5C8.91469 24.1981 9.44612 25.3033 9.58718 26.3816C9.70606 27.5771 9.44491 28.7958 8.68679 29.75C7.70119 30.898 6.38638 31.479 4.93679 31.8125C4.87257 31.8274 4.87257 31.8274 4.80706 31.8427C4.29682 31.9557 4.29682 31.9557 4.06179 31.9375C3.7505 31.6862 3.63285 31.4474 3.56179 31.0625C3.54417 30.8324 3.5348 30.602 3.5339 30.3712C3.52882 30.1522 3.51678 30.0238 3.38528 29.8449C3.2475 29.7337 3.2475 29.7337 3.03835 29.7187C2.66704 29.8724 2.58885 30.2075 2.43679 30.5625C2.13697 31.2303 1.87794 31.6114 1.19045 31.8908C0.872867 32.0059 0.584422 32.0162 0.249289 32C0.0617888 31.875 0.0617888 31.875 -0.000711165 31.6875C-0.00708017 31.5877 -0.00998517 31.4877 -0.010782 31.3877C-0.0116827 31.2962 -0.0116827 31.2962 -0.0126016 31.2028C-0.0128672 31.1366 -0.0131328 31.0704 -0.0134065 31.0022C-0.0137627 30.9333 -0.014119 30.8644 -0.014486 30.7934C-0.0150774 30.6467 -0.0154853 30.5001 -0.0157258 30.3534C-0.0163238 30.1334 -0.0182583 29.9135 -0.0202424 29.6935C-0.0253977 28.6109 0.0425622 27.5571 0.358664 26.5156C0.374666 26.4616 0.390669 26.4076 0.407156 26.352C0.656268 25.5387 0.986636 24.8088 1.49929 24.125C1.53313 24.0796 1.56696 24.0343 1.60183 23.9875C3.21632 21.9929 6.14294 22.0103 8.06179 23.5Z" fill="white"/>
</g>
<defs>
<clipPath id="clip0_660_284">
<rect width="32" height="32" fill="white"/>
</clipPath>
</defs>
</svg>
